<svg xmlns="http://www.w3.org/2000/svg" width="1100" height="600" viewBox="0 0 1100 600" role="img" aria-labelledby="title desc">
<title id="title">Blind-Test F1 Score by Class</title>
<desc id="desc">Independent 6,000-image blind-test dataset</desc>
<rect width="100%" height="100%" fill="#ffffff"/>
<text x="550.0" y="38" text-anchor="middle" font-family="Arial, sans-serif" font-size="25" font-weight="700" fill="#111827">Blind-Test F1 Score by Class</text>
<text x="550.0" y="66" text-anchor="middle" font-family="Arial, sans-serif" font-size="14" fill="#4b5563">Independent 6,000-image blind-test dataset</text>
<line x1="110" y1="455.0" x2="1050" y2="455.0" stroke="#e5e7eb" stroke-width="1"/>
<text x="95" y="460.0" text-anchor="end" font-family="Arial, sans-serif" font-size="13" fill="#374151">0%</text>
<line x1="110" y1="383.0" x2="1050" y2="383.0" stroke="#e5e7eb" stroke-width="1"/>
<text x="95" y="388.0" text-anchor="end" font-family="Arial, sans-serif" font-size="13" fill="#374151">20%</text>
<line x1="110" y1="311.0" x2="1050" y2="311.0" stroke="#e5e7eb" stroke-width="1"/>
<text x="95" y="316.0" text-anchor="end" font-family="Arial, sans-serif" font-size="13" fill="#374151">40%</text>
<line x1="110" y1="239.0" x2="1050" y2="239.0" stroke="#e5e7eb" stroke-width="1"/>
<text x="95" y="244.0" text-anchor="end" font-family="Arial, sans-serif" font-size="13" fill="#374151">60%</text>
<line x1="110" y1="167.0" x2="1050" y2="167.0" stroke="#e5e7eb" stroke-width="1"/>
<text x="95" y="172.0" text-anchor="end" font-family="Arial, sans-serif" font-size="13" fill="#374151">80%</text>
<line x1="110" y1="95.0" x2="1050" y2="95.0" stroke="#e5e7eb" stroke-width="1"/>
<text x="95" y="100.0" text-anchor="end" font-family="Arial, sans-serif" font-size="13" fill="#374151">100%</text>
<line x1="110" y1="95" x2="110" y2="455" stroke="#374151" stroke-width="1.5"/>
<line x1="110" y1="455" x2="1050" y2="455" stroke="#374151" stroke-width="1.5"/>
<rect x="130.3" y="124.1" width="53.3" height="330.9" rx="4" fill="#2563eb"/>
<text x="156.9" y="117.1" text-anchor="middle" font-family="Arial, sans-serif" font-size="12" font-weight="700" fill="#111827">91.92%</text>
<rect x="193.1" y="120.8" width="53.3" height="334.2" rx="4" fill="#10b981"/>
<text x="219.8" y="113.8" text-anchor="middle" font-family="Arial, sans-serif" font-size="12" font-weight="700" fill="#111827">92.84%</text>
<text x="188.3" y="483" text-anchor="middle" font-family="Arial, sans-serif" font-size="13" fill="#111827">Bluetooth</text>
<rect x="286.9" y="98.4" width="53.3" height="356.6" rx="4" fill="#2563eb"/>
<text x="313.6" y="91.4" text-anchor="middle" font-family="Arial, sans-serif" font-size="12" font-weight="700" fill="#111827">99.05%</text>
<rect x="349.8" y="104.3" width="53.3" height="350.7" rx="4" fill="#10b981"/>
<text x="376.4" y="97.3" text-anchor="middle" font-family="Arial, sans-serif" font-size="12" font-weight="700" fill="#111827">97.42%</text>
<text x="345.0" y="483" text-anchor="middle" font-family="Arial, sans-serif" font-size="13" fill="#111827">Noise</text>
<rect x="443.6" y="104.4" width="53.3" height="350.6" rx="4" fill="#2563eb"/>
<text x="470.2" y="97.4" text-anchor="middle" font-family="Arial, sans-serif" font-size="12" font-weight="700" fill="#111827">97.39%</text>
<rect x="506.5" y="108.2" width="53.3" height="346.8" rx="4" fill="#10b981"/>
<text x="533.1" y="101.2" text-anchor="middle" font-family="Arial, sans-serif" font-size="12" font-weight="700" fill="#111827">96.34%</text>
<text x="501.7" y="483" text-anchor="middle" font-family="Arial, sans-serif" font-size="13" fill="#111827">Unknown</text>
<rect x="600.3" y="135.8" width="53.3" height="319.2" rx="4" fill="#2563eb"/>
<text x="626.9" y="128.8" text-anchor="middle" font-family="Arial, sans-serif" font-size="12" font-weight="700" fill="#111827">88.68%</text>
<rect x="663.1" y="126.6" width="53.3" height="328.4" rx="4" fill="#10b981"/>
<text x="689.8" y="119.6" text-anchor="middle" font-family="Arial, sans-serif" font-size="12" font-weight="700" fill="#111827">91.23%</text>
<text x="658.3" y="483" text-anchor="middle" font-family="Arial, sans-serif" font-size="13" fill="#111827">WiFi</text>
<rect x="756.9" y="145.8" width="53.3" height="309.2" rx="4" fill="#2563eb"/>
<text x="783.6" y="138.8" text-anchor="middle" font-family="Arial, sans-serif" font-size="12" font-weight="700" fill="#111827">85.89%</text>
<rect x="819.8" y="138.7" width="53.3" height="316.3" rx="4" fill="#10b981"/>
<text x="846.4" y="131.7" text-anchor="middle" font-family="Arial, sans-serif" font-size="12" font-weight="700" fill="#111827">87.86%</text>
<text x="815.0" y="483" text-anchor="middle" font-family="Arial, sans-serif" font-size="13" fill="#111827">WiFi + BT</text>
<text x="815.0" y="500" text-anchor="middle" font-family="Arial, sans-serif" font-size="13" fill="#111827">Overlap</text>
<rect x="913.6" y="120.5" width="53.3" height="334.5" rx="4" fill="#2563eb"/>
<text x="940.2" y="113.5" text-anchor="middle" font-family="Arial, sans-serif" font-size="12" font-weight="700" fill="#111827">92.92%</text>
<rect x="976.5" y="111.8" width="53.3" height="343.2" rx="4" fill="#10b981"/>
<text x="1003.1" y="104.8" text-anchor="middle" font-family="Arial, sans-serif" font-size="12" font-weight="700" fill="#111827">95.32%</text>
<text x="971.7" y="483" text-anchor="middle" font-family="Arial, sans-serif" font-size="13" fill="#111827">WiFi + BT</text>
<text x="971.7" y="500" text-anchor="middle" font-family="Arial, sans-serif" font-size="13" fill="#111827">Separated</text>
<text x="28" y="275.0" transform="rotate(-90 28 275.0)" text-anchor="middle" font-family="Arial, sans-serif" font-size="14" fill="#111827">Score</text>
<rect x="418.0" y="555" width="18" height="18" rx="3" fill="#2563eb"/>
<text x="444.0" y="569" font-family="Arial, sans-serif" font-size="14" fill="#111827">Custom CNN</text>
<rect x="554.0" y="555" width="18" height="18" rx="3" fill="#10b981"/>
<text x="580.0" y="569" font-family="Arial, sans-serif" font-size="14" fill="#111827">ResNet-18</text>
</svg>