<svg xmlns="http://www.w3.org/2000/svg" width="1100" height="600" viewBox="0 0 1100 600" role="img" aria-labelledby="title desc">
<title id="title">Overall Accuracy Comparison</title>
<desc id="desc">Six-class RF spectrogram classification</desc>
<rect width="100%" height="100%" fill="#ffffff"/>
<text x="550.0" y="38" text-anchor="middle" font-family="Arial, sans-serif" font-size="25" font-weight="700" fill="#111827">Overall Accuracy Comparison</text>
<text x="550.0" y="66" text-anchor="middle" font-family="Arial, sans-serif" font-size="14" fill="#4b5563">Six-class RF spectrogram classification</text>
<line x1="110" y1="455.0" x2="1050" y2="455.0" stroke="#e5e7eb" stroke-width="1"/>
<text x="95" y="460.0" text-anchor="end" font-family="Arial, sans-serif" font-size="13" fill="#374151">0%</text>
<line x1="110" y1="383.0" x2="1050" y2="383.0" stroke="#e5e7eb" stroke-width="1"/>
<text x="95" y="388.0" text-anchor="end" font-family="Arial, sans-serif" font-size="13" fill="#374151">20%</text>
<line x1="110" y1="311.0" x2="1050" y2="311.0" stroke="#e5e7eb" stroke-width="1"/>
<text x="95" y="316.0" text-anchor="end" font-family="Arial, sans-serif" font-size="13" fill="#374151">40%</text>
<line x1="110" y1="239.0" x2="1050" y2="239.0" stroke="#e5e7eb" stroke-width="1"/>
<text x="95" y="244.0" text-anchor="end" font-family="Arial, sans-serif" font-size="13" fill="#374151">60%</text>
<line x1="110" y1="167.0" x2="1050" y2="167.0" stroke="#e5e7eb" stroke-width="1"/>
<text x="95" y="172.0" text-anchor="end" font-family="Arial, sans-serif" font-size="13" fill="#374151">80%</text>
<line x1="110" y1="95.0" x2="1050" y2="95.0" stroke="#e5e7eb" stroke-width="1"/>
<text x="95" y="100.0" text-anchor="end" font-family="Arial, sans-serif" font-size="13" fill="#374151">100%</text>
<line x1="110" y1="95" x2="110" y2="455" stroke="#374151" stroke-width="1.5"/>
<line x1="110" y1="455" x2="1050" y2="455" stroke="#374151" stroke-width="1.5"/>
<rect x="285.1" y="121.5" width="55.0" height="333.5" rx="4" fill="#2563eb"/>
<text x="312.6" y="114.5" text-anchor="middle" font-family="Arial, sans-serif" font-size="12" font-weight="700" fill="#111827">92.65%</text>
<rect x="350.0" y="151.3" width="55.0" height="303.7" rx="4" fill="#f59e0b"/>
<text x="377.5" y="144.3" text-anchor="middle" font-family="Arial, sans-serif" font-size="12" font-weight="700" fill="#111827">84.36%</text>
<text x="345.0" y="483" text-anchor="middle" font-family="Arial, sans-serif" font-size="13" fill="#111827">Custom CNN</text>
<rect x="755.0" y="118.4" width="55.0" height="336.6" rx="4" fill="#2563eb"/>
<text x="782.5" y="111.4" text-anchor="middle" font-family="Arial, sans-serif" font-size="12" font-weight="700" fill="#111827">93.50%</text>
<rect x="819.9" y="142.9" width="55.0" height="312.1" rx="4" fill="#f59e0b"/>
<text x="847.4" y="135.9" text-anchor="middle" font-family="Arial, sans-serif" font-size="12" font-weight="700" fill="#111827">86.69%</text>
<text x="815.0" y="483" text-anchor="middle" font-family="Arial, sans-serif" font-size="13" fill="#111827">ResNet-18</text>
<text x="28" y="275.0" transform="rotate(-90 28 275.0)" text-anchor="middle" font-family="Arial, sans-serif" font-size="14" fill="#111827">Score</text>
<rect x="310.0" y="555" width="18" height="18" rx="3" fill="#2563eb"/>
<text x="336.0" y="569" font-family="Arial, sans-serif" font-size="14" fill="#111827">Independent blind test</text>
<rect x="542.0" y="555" width="18" height="18" rx="3" fill="#f59e0b"/>
<text x="568.0" y="569" font-family="Arial, sans-serif" font-size="14" fill="#111827">Receiver-like validation</text>
</svg>