<svg xmlns="http://www.w3.org/2000/svg" width="1100" height="600" viewBox="0 0 1100 600" role="img" aria-labelledby="title desc">
<title id="title">Receiver-Like Validation F1 Score by Class</title>
<desc id="desc">Independent 3,600-image dataset with acquisition-inspired impairments</desc>
<rect width="100%" height="100%" fill="#ffffff"/>
<text x="550.0" y="38" text-anchor="middle" font-family="Arial, sans-serif" font-size="25" font-weight="700" fill="#111827">Receiver-Like Validation F1 Score by Class</text>
<text x="550.0" y="66" text-anchor="middle" font-family="Arial, sans-serif" font-size="14" fill="#4b5563">Independent 3,600-image dataset with acquisition-inspired impairments</text>
<line x1="110" y1="455.0" x2="1050" y2="455.0" stroke="#e5e7eb" stroke-width="1"/>
<text x="95" y="460.0" text-anchor="end" font-family="Arial, sans-serif" font-size="13" fill="#374151">0%</text>
<line x1="110" y1="383.0" x2="1050" y2="383.0" stroke="#e5e7eb" stroke-width="1"/>
<text x="95" y="388.0" text-anchor="end" font-family="Arial, sans-serif" font-size="13" fill="#374151">20%</text>
<line x1="110" y1="311.0" x2="1050" y2="311.0" stroke="#e5e7eb" stroke-width="1"/>
<text x="95" y="316.0" text-anchor="end" font-family="Arial, sans-serif" font-size="13" fill="#374151">40%</text>
<line x1="110" y1="239.0" x2="1050" y2="239.0" stroke="#e5e7eb" stroke-width="1"/>
<text x="95" y="244.0" text-anchor="end" font-family="Arial, sans-serif" font-size="13" fill="#374151">60%</text>
<line x1="110" y1="167.0" x2="1050" y2="167.0" stroke="#e5e7eb" stroke-width="1"/>
<text x="95" y="172.0" text-anchor="end" font-family="Arial, sans-serif" font-size="13" fill="#374151">80%</text>
<line x1="110" y1="95.0" x2="1050" y2="95.0" stroke="#e5e7eb" stroke-width="1"/>
<text x="95" y="100.0" text-anchor="end" font-family="Arial, sans-serif" font-size="13" fill="#374151">100%</text>
<line x1="110" y1="95" x2="110" y2="455" stroke="#374151" stroke-width="1.5"/>
<line x1="110" y1="455" x2="1050" y2="455" stroke="#374151" stroke-width="1.5"/>
<rect x="130.3" y="132.8" width="53.3" height="322.2" rx="4" fill="#2563eb"/>
<text x="156.9" y="125.8" text-anchor="middle" font-family="Arial, sans-serif" font-size="12" font-weight="700" fill="#111827">89.50%</text>
<rect x="193.1" y="136.7" width="53.3" height="318.3" rx="4" fill="#10b981"/>
<text x="219.8" y="129.7" text-anchor="middle" font-family="Arial, sans-serif" font-size="12" font-weight="700" fill="#111827">88.42%</text>
<text x="188.3" y="483" text-anchor="middle" font-family="Arial, sans-serif" font-size="13" fill="#111827">Bluetooth</text>
<rect x="286.9" y="138.1" width="53.3" height="316.9" rx="4" fill="#2563eb"/>
<text x="313.6" y="131.1" text-anchor="middle" font-family="Arial, sans-serif" font-size="12" font-weight="700" fill="#111827">88.02%</text>
<rect x="349.8" y="137.2" width="53.3" height="317.8" rx="4" fill="#10b981"/>
<text x="376.4" y="130.2" text-anchor="middle" font-family="Arial, sans-serif" font-size="12" font-weight="700" fill="#111827">88.28%</text>
<text x="345.0" y="483" text-anchor="middle" font-family="Arial, sans-serif" font-size="13" fill="#111827">Noise</text>
<rect x="443.6" y="183.4" width="53.3" height="271.6" rx="4" fill="#2563eb"/>
<text x="470.2" y="176.4" text-anchor="middle" font-family="Arial, sans-serif" font-size="12" font-weight="700" fill="#111827">75.45%</text>
<rect x="506.5" y="172.7" width="53.3" height="282.3" rx="4" fill="#10b981"/>
<text x="533.1" y="165.7" text-anchor="middle" font-family="Arial, sans-serif" font-size="12" font-weight="700" fill="#111827">78.41%</text>
<text x="501.7" y="483" text-anchor="middle" font-family="Arial, sans-serif" font-size="13" fill="#111827">Unknown</text>
<rect x="600.3" y="179.1" width="53.3" height="275.9" rx="4" fill="#2563eb"/>
<text x="626.9" y="172.1" text-anchor="middle" font-family="Arial, sans-serif" font-size="12" font-weight="700" fill="#111827">76.63%</text>
<rect x="663.1" y="144.7" width="53.3" height="310.3" rx="4" fill="#10b981"/>
<text x="689.8" y="137.7" text-anchor="middle" font-family="Arial, sans-serif" font-size="12" font-weight="700" fill="#111827">86.20%</text>
<text x="658.3" y="483" text-anchor="middle" font-family="Arial, sans-serif" font-size="13" fill="#111827">WiFi</text>
<rect x="756.9" y="152.6" width="53.3" height="302.4" rx="4" fill="#2563eb"/>
<text x="783.6" y="145.6" text-anchor="middle" font-family="Arial, sans-serif" font-size="12" font-weight="700" fill="#111827">84.00%</text>
<rect x="819.8" y="140.5" width="53.3" height="314.5" rx="4" fill="#10b981"/>
<text x="846.4" y="133.5" text-anchor="middle" font-family="Arial, sans-serif" font-size="12" font-weight="700" fill="#111827">87.37%</text>
<text x="815.0" y="483" text-anchor="middle" font-family="Arial, sans-serif" font-size="13" fill="#111827">WiFi + BT</text>
<text x="815.0" y="500" text-anchor="middle" font-family="Arial, sans-serif" font-size="13" fill="#111827">Overlap</text>
<rect x="913.6" y="118.2" width="53.3" height="336.8" rx="4" fill="#2563eb"/>
<text x="940.2" y="111.2" text-anchor="middle" font-family="Arial, sans-serif" font-size="12" font-weight="700" fill="#111827">93.57%</text>
<rect x="976.5" y="121.6" width="53.3" height="333.4" rx="4" fill="#10b981"/>
<text x="1003.1" y="114.6" text-anchor="middle" font-family="Arial, sans-serif" font-size="12" font-weight="700" fill="#111827">92.62%</text>
<text x="971.7" y="483" text-anchor="middle" font-family="Arial, sans-serif" font-size="13" fill="#111827">WiFi + BT</text>
<text x="971.7" y="500" text-anchor="middle" font-family="Arial, sans-serif" font-size="13" fill="#111827">Separated</text>
<text x="28" y="275.0" transform="rotate(-90 28 275.0)" text-anchor="middle" font-family="Arial, sans-serif" font-size="14" fill="#111827">Score</text>
<rect x="418.0" y="555" width="18" height="18" rx="3" fill="#2563eb"/>
<text x="444.0" y="569" font-family="Arial, sans-serif" font-size="14" fill="#111827">Custom CNN</text>
<rect x="554.0" y="555" width="18" height="18" rx="3" fill="#10b981"/>
<text x="580.0" y="569" font-family="Arial, sans-serif" font-size="14" fill="#111827">ResNet-18</text>
</svg>